<?xml version="1.0" encoding="UTF-8" standalone="no"?>
<svg
   xmlns:dc="http://purl.org/dc/elements/1.1/"
   xmlns:cc="http://creativecommons.org/ns#"
   xmlns:rdf="http://www.w3.org/1999/02/22-rdf-syntax-ns#"
   xmlns:svg="http://www.w3.org/2000/svg"
   xmlns="http://www.w3.org/2000/svg"
   xmlns:sodipodi="http://sodipodi.sourceforge.net/DTD/sodipodi-0.dtd"
   xmlns:inkscape="http://www.inkscape.org/namespaces/inkscape"
   width="120"
   height="120"
   viewBox="0 0 31.749999 31.750001"
   version="1.1"
   id="svg8"
   inkscape:version="1.0 (4035a4f, 2020-05-01)"
   sodipodi:docname="hide.svg">
  <defs
     id="defs2" />
  <sodipodi:namedview
     inkscape:snap-global="false"
     id="base"
     pagecolor="#ffffff"
     bordercolor="#666666"
     borderopacity="1.0"
     inkscape:pageopacity="0.0"
     inkscape:pageshadow="2"
     inkscape:zoom="0.60796232"
     inkscape:cx="16.810124"
     inkscape:cy="388.01009"
     inkscape:document-units="px"
     inkscape:current-layer="layer1"
     inkscape:document-rotation="0"
     showgrid="false"
     units="px"
     inkscape:showpageshadow="false"
     borderlayer="true"
     inkscape:window-width="1542"
     inkscape:window-height="1035"
     inkscape:window-x="136"
     inkscape:window-y="45"
     inkscape:window-maximized="0" />
  <metadata
     id="metadata5">
    <rdf:RDF>
      <cc:Work
         rdf:about="">
        <dc:format>image/svg+xml</dc:format>
        <dc:type
           rdf:resource="http://purl.org/dc/dcmitype/StillImage" />
        <dc:title></dc:title>
      </cc:Work>
    </rdf:RDF>
  </metadata>
  <g
     inkscape:label="レイヤー 1"
     inkscape:groupmode="layer"
     id="layer1">
    <g
       transform="translate(-26.176937,-51.087929)"
       id="g982">
      <rect
         y="51.087929"
         x="26.176937"
         height="31.750002"
         width="31.75"
         id="rect1184"
         style="fill:none;fill-opacity:1;stroke:none;stroke-width:2.6742;stroke-linecap:round;stroke-miterlimit:4;stroke-dasharray:none;stroke-opacity:1" />
      <g
         id="g953"
         transform="translate(0,-0.49706666)">
        <path
           transform="scale(0.26458333)"
           d="m 158.93555,221.70312 c -24.59966,1.4e-4 -52.1836,35.38477 -52.1836,35.38477 0,0 10.87384,13.94635 25.05469,24.32813 l 6.92188,-6.92188 a 26.670364,26.670364 0 0 1 -6.4629,-17.40625 26.670364,26.670364 0 0 1 26.66993,-26.66992 26.670364,26.670364 0 0 1 17.40625,6.46289 l 6.41992,-6.41992 c -7.56259,-5.02854 -15.849,-8.75785 -23.82617,-8.75782 z m 31.90039,14.7754 -8.25977,8.25976 a 26.670364,26.670364 0 0 1 3.03125,12.34961 26.670364,26.670364 0 0 1 -26.67187,26.66992 26.670364,26.670364 0 0 1 -12.34766,-3.03125 l -6.20508,6.20508 c 6.05177,3.32384 12.39558,5.54098 18.55274,5.54102 24.60007,1.4e-4 52.18554,-35.38477 52.18554,-35.38477 0,0 -8.50984,-10.90591 -20.28515,-20.60937 z"
           style="fill:#000000;fill-opacity:1;stroke:none;stroke-width:5.76113;stroke-linecap:round;stroke-miterlimit:4;stroke-dasharray:none;stroke-opacity:1"
           id="path1186" />
        <circle
           r="4.9977002"
           cy="68.021255"
           cx="42.051937"
           id="circle1190"
           style="fill:#000000;fill-opacity:1;stroke:none;stroke-width:1.76385;stroke-linecap:round;stroke-miterlimit:4;stroke-dasharray:none;stroke-opacity:1" />
        <rect
           transform="rotate(-45)"
           ry="1.3181307"
           y="75.721634"
           x="-35.346684"
           height="2.6362615"
           width="33.967213"
           id="rect1204"
           style="fill:#000000;fill-opacity:1;stroke:none;stroke-width:2.49555;stroke-linecap:round;stroke-miterlimit:4;stroke-dasharray:none;stroke-opacity:1" />
      </g>
    </g>
  </g>
</svg>
