<?xml version="1.0" encoding="UTF-8" standalone="no"?>
<svg
   xmlns:dc="http://purl.org/dc/elements/1.1/"
   xmlns:cc="http://creativecommons.org/ns#"
   xmlns:rdf="http://www.w3.org/1999/02/22-rdf-syntax-ns#"
   xmlns:svg="http://www.w3.org/2000/svg"
   xmlns="http://www.w3.org/2000/svg"
   xmlns:sodipodi="http://sodipodi.sourceforge.net/DTD/sodipodi-0.dtd"
   xmlns:inkscape="http://www.inkscape.org/namespaces/inkscape"
   sodipodi:docname="m.svg"
   inkscape:version="1.0 (4035a4f, 2020-05-01)"
   id="svg8"
   version="1.1"
   viewBox="0 0 31.749999 31.750001"
   height="120"
   width="120">
  <defs
     id="defs2" />
  <sodipodi:namedview
     inkscape:window-maximized="0"
     inkscape:window-y="23"
     inkscape:window-x="136"
     inkscape:window-height="1035"
     inkscape:window-width="1542"
     borderlayer="true"
     inkscape:showpageshadow="false"
     units="px"
     showgrid="false"
     inkscape:document-rotation="0"
     inkscape:current-layer="layer1"
     inkscape:document-units="px"
     inkscape:cy="227.42"
     inkscape:cx="60.742228"
     inkscape:zoom="1.6780506"
     inkscape:pageshadow="2"
     inkscape:pageopacity="0.0"
     borderopacity="1.0"
     bordercolor="#666666"
     pagecolor="#ffffff"
     id="base"
     inkscape:snap-global="false" />
  <metadata
     id="metadata5">
    <rdf:RDF>
      <cc:Work
         rdf:about="">
        <dc:format>image/svg+xml</dc:format>
        <dc:type
           rdf:resource="http://purl.org/dc/dcmitype/StillImage" />
        <dc:title />
      </cc:Work>
    </rdf:RDF>
  </metadata>
  <g
     id="layer1"
     inkscape:groupmode="layer"
     inkscape:label="レイヤー 1">
    <rect
       y="-3.8281252e-07"
       x="4.4873045e-06"
       height="31.750002"
       width="31.75"
       id="rect906"
       style="fill:none;fill-opacity:1;stroke:none;stroke-width:2.6742;stroke-linecap:round;stroke-miterlimit:4;stroke-dasharray:none;stroke-opacity:1" />
    <circle
       style="fill:#000000;fill-opacity:1;stroke:none;stroke-width:1.25834;stroke-linecap:round;stroke-miterlimit:4;stroke-dasharray:none;stroke-opacity:1"
       id="circle908"
       cx="20.637501"
       cy="15.875"
       r="5.2916665" />
    <g
       transform="matrix(1.4600176,0,0,1.4600176,93.111427,-58.690598)"
       style="font-style:normal;font-weight:normal;font-size:10.5833px;line-height:1.25;font-family:sans-serif;fill:#000000;fill-opacity:1;stroke:none;stroke-width:0.264583"
       id="text2019"
       aria-label="S">
      <path
         id="path2021"
         style="stroke-width:0.264583"
         d="m -54.552242,52.673975 q 0,0.449584 -0.211872,0.888832 -0.206706,0.439248 -0.583942,0.744138 -0.41341,0.330728 -0.966346,0.516763 -0.547769,0.186034 -1.322913,0.186034 -0.831988,0 -1.498612,-0.155029 -0.661456,-0.155028 -1.34875,-0.459918 v -1.281572 h 0.07235 q 0.583942,0.485757 1.348751,0.749306 0.764809,0.263549 1.4366,0.263549 0.950844,0 1.477942,-0.356566 0.532265,-0.356566 0.532265,-0.950843 0,-0.511596 -0.253214,-0.754474 -0.248046,-0.242878 -0.759641,-0.377237 -0.387572,-0.103352 -0.842323,-0.170531 -0.449583,-0.06718 -0.956011,-0.170532 -1.02319,-0.21704 -1.519282,-0.738971 -0.490925,-0.527098 -0.490925,-1.369421 0,-0.966346 0.816485,-1.581294 0.816485,-0.620115 2.072219,-0.620115 0.811317,0 1.488276,0.155029 0.676959,0.155029 1.19889,0.382404 v 1.209225 h -0.07235 q -0.439248,-0.372069 -1.157549,-0.614948 -0.713132,-0.248046 -1.462438,-0.248046 -0.821653,0 -1.322912,0.341064 -0.496093,0.341063 -0.496093,0.878496 0,0.48059 0.248047,0.754474 0.248046,0.273884 0.873328,0.418578 0.330729,0.07235 0.940509,0.175699 0.60978,0.103352 1.033525,0.211873 0.857826,0.227375 1.291907,0.687294 0.43408,0.459919 0.434079,1.286739 z" />
    </g>
  </g>
</svg>
