<?xml version="1.0" encoding="UTF-8" standalone="no"?>
<svg
   xmlns:dc="http://purl.org/dc/elements/1.1/"
   xmlns:cc="http://creativecommons.org/ns#"
   xmlns:rdf="http://www.w3.org/1999/02/22-rdf-syntax-ns#"
   xmlns:svg="http://www.w3.org/2000/svg"
   xmlns="http://www.w3.org/2000/svg"
   xmlns:sodipodi="http://sodipodi.sourceforge.net/DTD/sodipodi-0.dtd"
   xmlns:inkscape="http://www.inkscape.org/namespaces/inkscape"
   width="120"
   height="120"
   viewBox="0 0 31.749999 31.750001"
   version="1.1"
   id="svg8"
   inkscape:version="1.0 (4035a4f, 2020-05-01)"
   sodipodi:docname="show.svg">
  <defs
     id="defs2" />
  <sodipodi:namedview
     inkscape:snap-global="false"
     id="base"
     pagecolor="#ffffff"
     bordercolor="#666666"
     borderopacity="1.0"
     inkscape:pageopacity="0.0"
     inkscape:pageshadow="2"
     inkscape:zoom="0.60796232"
     inkscape:cx="16.810124"
     inkscape:cy="388.01009"
     inkscape:document-units="px"
     inkscape:current-layer="layer1"
     inkscape:document-rotation="0"
     showgrid="false"
     units="px"
     inkscape:showpageshadow="false"
     borderlayer="true"
     inkscape:window-width="1542"
     inkscape:window-height="1035"
     inkscape:window-x="136"
     inkscape:window-y="45"
     inkscape:window-maximized="0" />
  <metadata
     id="metadata5">
    <rdf:RDF>
      <cc:Work
         rdf:about="">
        <dc:format>image/svg+xml</dc:format>
        <dc:type
           rdf:resource="http://purl.org/dc/dcmitype/StillImage" />
        <dc:title></dc:title>
      </cc:Work>
    </rdf:RDF>
  </metadata>
  <g
     inkscape:label="レイヤー 1"
     inkscape:groupmode="layer"
     id="layer1">
    <g
       transform="translate(153.4852,2.7796764)"
       id="g975">
      <rect
         style="fill:none;fill-opacity:1;stroke:none;stroke-width:2.6742;stroke-linecap:round;stroke-miterlimit:4;stroke-dasharray:none;stroke-opacity:1"
         id="rect1106"
         width="31.75"
         height="31.750002"
         x="-153.4852"
         y="-2.7796764" />
      <path
         id="rect1144"
         style="fill:#000000;fill-opacity:1;stroke:none;stroke-width:5.76113;stroke-linecap:round;stroke-miterlimit:4;stroke-dasharray:none;stroke-opacity:1"
         d="m -520.10156,14.109375 c -24.59966,1.36e-4 -52.18555,35.384766 -52.18555,35.384766 0,0 27.58589,35.384637 52.18555,35.384765 24.60007,1.4e-4 52.18554,-35.384765 52.18554,-35.384765 0,0 -27.58547,-35.384902 -52.18554,-35.384766 z m -0.20313,8.714844 a 26.670364,26.670364 0 0 1 0.20313,0 26.670364,26.670364 0 0 1 26.66992,26.669922 26.670364,26.670364 0 0 1 -26.66992,26.669921 26.670364,26.670364 0 0 1 -26.66992,-26.669921 26.670364,26.670364 0 0 1 26.46679,-26.669922 z m 0.13477,7.78125 a 18.888946,18.888946 0 0 0 -18.82031,18.888672 18.888946,18.888946 0 0 0 18.88867,18.888671 18.888946,18.888946 0 0 0 18.88867,-18.888671 18.888946,18.888946 0 0 0 -18.88867,-18.888672 18.888946,18.888946 0 0 0 -0.0684,0 z"
         transform="scale(0.26458333)" />
    </g>
  </g>
</svg>
